<svg width="24" height="24" viewBox="0 0 24 24" fill="none" xmlns="http://www.w3.org/2000/svg">
    <path d="M10.75 13.25V16.5C10.75 16.7125 10.8219 16.8906 10.9658 17.0343C11.1096 17.1781 11.2878 17.25 11.5003 17.25C11.7129 17.25 11.891 17.1781 12.0345 17.0343C12.1782 16.8906 12.25 16.7125 12.25 16.5V13.25H15.5C15.7125 13.25 15.8906 13.1781 16.0343 13.0343C16.1781 12.8904 16.25 12.7122 16.25 12.4998C16.25 12.2871 16.1781 12.109 16.0343 11.9655C15.8906 11.8218 15.7125 11.75 15.5 11.75H12.25V8.5C12.25 8.2875 12.1781 8.10942 12.0343 7.96575C11.8904 7.82192 11.7122 7.75 11.4998 7.75C11.2871 7.75 11.109 7.82192 10.9655 7.96575C10.8218 8.10942 10.75 8.2875 10.75 8.5V11.75H7.5C7.2875 11.75 7.10942 11.8219 6.96575 11.9658C6.82192 12.1096 6.75 12.2878 6.75 12.5003C6.75 12.7129 6.82192 12.891 6.96575 13.0345C7.10942 13.1782 7.2875 13.25 7.5 13.25H10.75ZM4.80775 21C4.30258 21 3.875 20.825 3.525 20.475C3.175 20.125 3 19.6974 3 19.1923V5.80775C3 5.30258 3.175 4.875 3.525 4.525C3.875 4.175 4.30258 4 4.80775 4H18.1923C18.6974 4 19.125 4.175 19.475 4.525C19.825 4.875 20 5.30258 20 5.80775V19.1923C20 19.6974 19.825 20.125 19.475 20.475C19.125 20.825 18.6974 21 18.1923 21H4.80775Z" fill="black"/>
</svg>
