<svg width="24" height="24" viewBox="0 0 24 24" fill="none" xmlns="http://www.w3.org/2000/svg">
    <path d="M9.44225 3.5C9.22975 3.5 9.05167 3.42808 8.908 3.28425C8.76417 3.14042 8.69225 2.96225 8.69225 2.74975C8.69225 2.53708 8.76417 2.359 8.908 2.2155C9.05167 2.07183 9.22975 2 9.44225 2H13.5577C13.7703 2 13.9483 2.07192 14.092 2.21575C14.2358 2.35958 14.3077 2.53775 14.3077 2.75025C14.3077 2.96292 14.2358 3.141 14.092 3.2845C13.9483 3.42817 13.7703 3.5 13.5577 3.5H9.44225ZM11.5003 14.5577C11.7129 14.5577 11.891 14.4858 12.0345 14.342C12.1782 14.1983 12.25 14.0203 12.25 13.8077V9.69225C12.25 9.47975 12.1781 9.30167 12.0343 9.158C11.8904 9.01417 11.7122 8.94225 11.4998 8.94225C11.2871 8.94225 11.109 9.01417 10.9655 9.158C10.8218 9.30167 10.75 9.47975 10.75 9.69225V13.8077C10.75 14.0203 10.8219 14.1983 10.9658 14.342C11.1096 14.4858 11.2878 14.5577 11.5003 14.5577ZM11.5 22.25C10.3338 22.25 9.23458 22.0269 8.20225 21.5807C7.16992 21.1346 6.26792 20.5256 5.49625 19.7538C4.72442 18.9821 4.11542 18.0801 3.66925 17.0478C3.22308 16.0154 3 14.9162 3 13.75C3 12.5838 3.22308 11.4846 3.66925 10.4523C4.11542 9.41992 4.72442 8.51792 5.49625 7.74625C6.26792 6.97442 7.16992 6.36542 8.20225 5.91925C9.23458 5.47308 10.3338 5.25 11.5 5.25C12.5013 5.25 13.4657 5.41992 14.3932 5.75975C15.3207 6.09942 16.182 6.58592 16.977 7.21925L17.6962 6.5C17.8346 6.3615 18.0086 6.29067 18.2182 6.2875C18.4279 6.28433 18.6052 6.35517 18.75 6.5C18.8948 6.64483 18.9672 6.8205 18.9672 7.027C18.9672 7.23333 18.8948 7.40892 18.75 7.55375L18.0307 8.273C18.6641 9.068 19.1506 9.92925 19.4902 10.8568C19.8301 11.7843 20 12.7487 20 13.75C20 14.9162 19.7769 16.0154 19.3307 17.0478C18.8846 18.0801 18.2756 18.9821 17.5038 19.7538C16.7321 20.5256 15.8301 21.1346 14.7977 21.5807C13.7654 22.0269 12.6662 22.25 11.5 22.25Z" fill="black"/>
</svg>
