<svg width="24" height="24" viewBox="0 0 24 24" fill="none" xmlns="http://www.w3.org/2000/svg">
    <path d="M10.075 17.15C8.10833 17.15 6.4375 16.4625 5.0625 15.0875C3.6875 13.7125 3 12.0417 3 10.075C3 8.10833 3.6875 6.4375 5.0625 5.0625C6.4375 3.6875 8.10833 3 10.075 3C12.0417 3 13.7125 3.6875 15.0875 5.0625C16.4625 6.4375 17.15 8.10833 17.15 10.075C17.15 10.8417 17.05 11.5375 16.85 12.1625C16.65 12.7875 16.3833 13.3333 16.05 13.8L21.45 19.225C21.75 19.5417 21.9 19.9125 21.9 20.3375C21.9 20.7625 21.7417 21.125 21.425 21.425C21.125 21.725 20.7583 21.875 20.325 21.875C19.8917 21.875 19.525 21.725 19.225 21.425L13.85 16.05C13.3667 16.3833 12.8042 16.65 12.1625 16.85C11.5208 17.05 10.825 17.15 10.075 17.15ZM10.075 14C11.175 14 12.1042 13.6208 12.8625 12.8625C13.6208 12.1042 14 11.175 14 10.075C14 8.975 13.6208 8.04583 12.8625 7.2875C12.1042 6.52917 11.175 6.15 10.075 6.15C8.975 6.15 8.04583 6.52917 7.2875 7.2875C6.52917 8.04583 6.15 8.975 6.15 10.075C6.15 11.175 6.52917 12.1042 7.2875 12.8625C8.04583 13.6208 8.975 14 10.075 14Z" fill="black"/>
</svg>
